<svg xmlns="http://www.w3.org/2000/svg" xmlns:xlink="http://www.w3.org/1999/xlink" width="1000" height="1000" viewBox="0 0 1000 1000">
  <defs>
    <clipPath id="clip-Illustration_1">
      <rect width="1000" height="1000"/>
    </clipPath>
  </defs>
  <g id="Illustration_1" data-name="Illustration 1" clip-path="url(#clip-Illustration_1)">
    <rect width="1000" height="1000" fill="#eaeaea"/>
    <path id="hair" d="M642.226,290.161s18.9-7.861,25.5-23.083S690.2,134.622,687.056,125.336,637.724,83.4,607.509,68.279,566.2,64.872,566.2,64.872L572.1,78.76s-22.46-6.759-38.27-4.612a42.165,42.165,0,0,0-24.968,13.2l12.977,8.5s-22.289,7.831-31.925,24.694-6.621,42.756-6.621,42.756l13.124-10.682a76.321,76.321,0,0,0,2.1,18.053c2.238,8.222,8.738,15.395,8.738,15.395s-18.582,88.889,15.632,115.055c21.042,16.092,63.718,13.6,91.9,5.1A67.633,67.633,0,0,0,642.226,290.161Z" transform="translate(126.588 105.194)" fill="#353535" stroke="#353535" stroke-linejoin="round" stroke-width="3"/>
    <path id="face" d="M507.274,183.183l20.619-52.142s3.838,9.826,9.707,16.142a38.929,38.929,0,0,0,13.768,9.122l5.624-14.783a39.619,39.619,0,0,0,12.92,24.231c11.8,10.415,42.812,15.135,42.812,15.135l-24.581-39.367,24.581,18.641s6.9-27.054,20.438-15.731,7.064,51.22,7.064,51.22,21.987-28,35.094-8.919-23.774,41.651-23.774,41.651,6.533,38.917-11.319,63.381c-9.672,13.254-39.5,18.683-52.082,18.946-16.259.34-49.422,4.949-66.058-10.778-19.246-18.194-20.769-57.2-20.769-57.2Z" transform="translate(126.588 105.194)" fill="#fbfbfb" stroke="#353535" stroke-linejoin="round" stroke-width="3"/>
    <line id="Table" x2="780" transform="translate(137.088 742.695)" fill="none" stroke="#353535" stroke-linecap="round" stroke-width="3"/>
    <g id="Specs" transform="translate(126.588 105.194)">
      <path id="Path_11" data-name="Path 11" d="M467.6,198.734s.089,5.348,0,16.345,7.3,18.635,27.328,18.971c18.609.312,27.736-9.7,28.032-18.971s0-16.345,0-16.345Z" transform="translate(16.161 1)" fill="#fff" stroke="#353535" stroke-linejoin="round" stroke-width="3"/>
      <path id="Path_12" data-name="Path 12" d="M467.6,198.734s.111,5.913,0,18.07,9.033,20.6,33.81,20.974c23.023.345,34.315-10.725,34.68-20.974s0-18.07,0-18.07Z" transform="translate(97 1)" fill="#fff" stroke="#353535" stroke-linecap="round" stroke-linejoin="round" stroke-width="3"/>
      <path id="Path_13" data-name="Path 13" d="M25,0S18.289-2.9,12.039-2.9A30.591,30.591,0,0,0,0,0" transform="translate(539.249 204.181)" fill="#fff" stroke="#353535" stroke-width="5"/>
    </g>
    <path id="nose" d="M2.667-1.119S3.6,6.5,1.263,12.27s-10.621,10.8-10.621,10.8A39.083,39.083,0,0,0,0,28.573c5.089,1.981,11.478,0,11.478,0" transform="translate(670.088 330.694)" fill="none" stroke="#353535" stroke-linecap="round" stroke-linejoin="round" stroke-width="3"/>
    <path id="Ear" d="M15.026-1.432s-1.2-9.838-5.534-9.668S-.1-6.261-2.318-.75c-.888,2.2,4.128,3.912,4.679,7.892.275,1.995-8.066,9.012-.783,9.673,4.268.387,7.173-5.126,6.727-10.535C8.033,2.959,4.809-.75,4.809-.75" transform="matrix(0.985, 0.174, -0.174, 0.985, 780.416, 304.543)" fill="none" stroke="#707070" stroke-linecap="round" stroke-width="2"/>
    <path id="Mouth" d="M0,0A17.815,17.815,0,0,0,7.786,6.586C13.036,8.836,21,9,21,9" transform="translate(665.088 379.694)" fill="none" stroke="#353535" stroke-linecap="round" stroke-width="3"/>
    <path id="Neck" d="M559.177,312.454v24.213l-41.37,7.312s20.287,52.6,77.448,50.173,74.822-50.173,74.822-50.173l-23.77-7.312-11.1-40.638s-11.271,9-30.279,12.849S559.177,312.454,559.177,312.454Z" transform="translate(126.588 105.194)" fill="#fcfcfc" stroke="#353535" stroke-width="3"/>
    <path id="Path_32" data-name="Path 32" d="M3247.623,180.074,3227.63,147.31l19.994,14.749s5.284-27.1,18.6-16.473,6.92,52.751,6.92,52.751,14.435-21.2,27.636-16.478a16.261,16.261,0,0,1,8.207,6.955c2.15,3.94,2.146,9.632,0,14.046-6.128,12.607-24.635,25.309-24.635,25.309s3.435,39.689-8.647,59.755c-4.76,7.906-10.609,13.581-33.349,19.321s-57.61,3.638-57.61,3.638,72.129-27.517,75.527-59.434S3247.623,180.074,3247.623,180.074Z" transform="translate(-2506.868 105.062)" fill="#b2b2b2" opacity="0.364"/>
    <g id="Shirt" transform="translate(126.588 105.194)">
      <path id="Path_18" data-name="Path 18" d="M517.807,345.132s-38.815.051-65.46,42.4-41.12,126.986-41.12,126.986H511.681s-15.638,69.118-19.524,87.95-18.37,34.51-18.37,34.51H660.7a74.233,74.233,0,0,0,29.893-8.126c14.616-7.8,20.531-15.284,20.531-15.284L701.75,520l88.595-17.333s-9.822-82.67-39.858-122.32-80.284-36.28-80.284-36.28-17.328,45.613-74.471,50.152S517.807,345.132,517.807,345.132Z" fill="#d8d5d5" stroke="#353535" stroke-linecap="round" stroke-linejoin="round" stroke-width="3"/>
      <line id="Line_1" data-name="Line 1" x2="1" y2="71" transform="translate(510.5 442.5)" fill="none" stroke="#353535" stroke-linecap="round" stroke-width="3"/>
      <line id="Line_2" data-name="Line 2" x1="3" y2="74" transform="translate(702.5 445.5)" fill="none" stroke="#353535" stroke-linecap="round" stroke-width="3"/>
    </g>
    <g id="Eyebrow" transform="translate(126.588 105.194)">
      <path id="Path_19" data-name="Path 19" d="M27,0S21.024-4.243,14.274-4.243,0,0,0,0" transform="translate(507.142 190.5)" fill="none" stroke="#353535" stroke-linecap="round" stroke-width="4"/>
      <path id="Path_20" data-name="Path 20" d="M31.337,0S24.4-4.243,16.567-4.243,0,0,0,0" transform="translate(583.286 190.116)" fill="none" stroke="#353535" stroke-linecap="round" stroke-width="4"/>
    </g>
    <g id="Laptop" transform="translate(126.588 105.194)">
      <g id="Path_21" data-name="Path 21" transform="translate(27.851 419.062) rotate(21)" fill="#353535">
        <path d="M 408.3966369628906 214.7115478515625 L 267.3784484863281 29.95740127563477 L 267.0787353515625 29.56475830078125 L 266.5848083496094 29.56411552429199 L 12.22176170349121 29.23334312438965 L 17.49695587158203 27.4140682220459 L 274.5085144042969 20.00587463378906 L 409.5878295898438 199.5775451660156 L 410.0629577636719 200.2091217041016 L 410.7872314453125 199.892822265625 L 564.1185302734375 132.9225006103516 L 568.291259765625 143.7931976318359 L 408.3966369628906 214.7115478515625 Z" stroke="none"/>
        <path d="M 274.0202941894531 21.02035522460938 L 23.28192138671875 28.24772644042969 L 266.5860900878906 28.56411743164062 L 267.5739440917969 28.56539916992188 L 268.1733093261719 29.35069274902344 L 408.7125854492188 213.4774932861328 L 567.0171508789062 143.264404296875 L 563.559814453125 134.2576293945312 L 411.1874389648438 200.8091888427734 L 409.7388916015625 201.44189453125 L 408.7886657714844 200.1786804199219 L 274.0202941894531 21.02035522460938 M 274.9967346191406 18.99139404296875 L 410.386962890625 198.9764099121094 L 564.677001953125 131.5872497558594 L 569.5653686523438 144.3220520019531 L 408.0805358886719 215.9456787109375 L 266.5835266113281 30.56411743164062 L 6.27740478515625 30.22561645507812 L 17.31536865234375 26.41889953613281 L 274.9967346191406 18.99139404296875 Z" stroke="none" fill="#353535"/>
      </g>
      <g id="Path_22" data-name="Path 22" transform="translate(18 461)" fill="#848484">
        <path d="M 313.9891357421875 304.6861572265625 L 73.25797271728516 175.6024169921875 L 6.561688423156738 -9.760136604309082 L 248.7898712158203 82.22068023681641 L 313.9891357421875 304.6861572265625 Z" stroke="none"/>
        <path d="M 8.23834228515625 -8.05377197265625 L 74.06887817382812 174.9025573730469 L 312.3581848144531 302.6769409179688 L 247.9700317382812 82.97900390625 L 8.23834228515625 -8.05377197265625 M 4.8848876953125 -11.46652221679688 L 249.6096649169922 81.46226501464844 L 315.6200256347656 306.6953735351562 L 72.44699096679688 176.3022613525391 L 4.8848876953125 -11.46652221679688 Z" stroke="none" fill="#353535"/>
      </g>
      <g id="Path_23" data-name="Path 23" transform="translate(304 633)" fill="#4d4d4d" stroke-linecap="round" stroke-linejoin="round">
        <path d="M 35.20237350463867 120.5809783935547 L 34.98227310180664 119.8223495483398 L 2.039597511291504 6.278650760650635 L 1.381097555160522 4.009000778198242 L 3.468697547912598 5.116650581359863 L 202.2337493896484 110.5775985717773 L 205.4473266601562 112.2826538085938 L 201.813720703125 112.4597778320312 L 35.99134826660156 120.5425262451172 L 35.20237350463867 120.5809783935547 Z" stroke="none"/>
        <path d="M 3 6.000007629394531 L 35.94265747070312 119.5436935424805 L 201.7650451660156 111.4609298706055 L 3 6.000007629394531 M 3.000320434570312 4 C 3.320587158203125 4 3.642501831054688 4.076828002929688 3.937393188476562 4.233299255371094 L 202.7024383544922 109.694221496582 C 203.4978332519531 110.1162185668945 203.9131469726562 111.0177154541016 203.7170562744141 111.8965072631836 C 203.5209503173828 112.7753219604492 202.7617645263672 113.4147186279297 201.8624114990234 113.4585571289062 L 36.04002380371094 121.5413208007812 C 36.00721740722656 121.5429229736328 35.97441101074219 121.5437164306641 35.94184875488281 121.5437164306641 C 35.05633544921875 121.5437164306641 34.27079772949219 120.9589157104492 34.02186584472656 120.1009826660156 L 1.079208374023438 6.557296752929688 C 0.8553314208984375 5.785720825195312 1.114913940429688 4.955085754394531 1.738235473632812 4.4482421875 C 2.102554321289062 4.152008056640625 2.549819946289062 4 3.000320434570312 4 Z" stroke="none" fill="#353535"/>
      </g>
    </g>
    <g id="Hand" transform="translate(126.588 105.194)">
      <path id="Path_24" data-name="Path 24" d="M437.466,515.339s-8.842,70.944-15.684,84.9S312.6,658.109,312.6,658.109l10.654,40.753s101.98-38.827,147.215-64.446c11.939-6.762,19.861-20.664,20.556-23.169,3.262-11.762,14.247-95.908,14.247-95.908Z" fill="#fff" stroke="#353535" stroke-width="3"/>
      <path id="Path_25" data-name="Path 25" d="M718.287,517.339s15.218,66.943-3.018,95.323-201.824,59.3-201.824,59.3-30.211-16.053-57.219-12.619-50.81,26.354-50.81,26.354-6.17,11.027,0,17.32,104.353,0,104.353,0,89.544,3.185,156.861-7.734,105.182-31.03,112.41-35.94c16.693-11.34,3-155.081,3-155.081Z" fill="#fff" stroke="#353535" stroke-width="3"/>
    </g>
    <circle id="Ellipse_10" data-name="Ellipse 10" cx="8" cy="8" r="8" transform="translate(714.588 313.194)" fill="#353535"/>
    <path id="Icon_awesome-facebook-square" data-name="Icon awesome-facebook-square" d="M84.6,2.25H10.152A10.152,10.152,0,0,0,0,12.4V86.847A10.152,10.152,0,0,0,10.152,97H39.179V64.786H25.855V49.624H39.179V38.068c0-13.144,7.825-20.4,19.81-20.4a80.72,80.72,0,0,1,11.742,1.024v12.9H64.118c-6.516,0-8.549,4.044-8.549,8.191v9.845H70.116L67.79,64.786H55.57V97H84.6A10.152,10.152,0,0,0,94.749,86.847V12.4A10.152,10.152,0,0,0,84.6,2.25Z" transform="translate(403.02 464.974)" fill="#4d4d4d"/>
    <path id="Icon_awesome-snapchat-square" data-name="Icon awesome-snapchat-square" d="M96.195,2.25H11.543A11.546,11.546,0,0,0,0,13.793V98.445a11.546,11.546,0,0,0,11.543,11.543H96.195a11.546,11.546,0,0,0,11.543-11.543V13.793A11.546,11.546,0,0,0,96.195,2.25ZM94.631,77.979c-.842,1.948-4.353,3.367-10.774,4.377a29.554,29.554,0,0,0-1.034,3.824A1.852,1.852,0,0,1,80.876,87.6h-.048c-1.491,0-3.078-.7-6.2-.7-4.233,0-5.7.962-8.994,3.295-3.487,2.477-6.83,4.593-11.832,4.377-5.05.385-9.283-2.693-11.664-4.377-3.319-2.333-4.762-3.295-8.994-3.295-3.006,0-4.906.746-6.2.746a1.909,1.909,0,0,1-2-1.443A30.191,30.191,0,0,0,23.9,82.356c-3.319-.505-10.774-1.8-10.942-5.146a1.7,1.7,0,0,1,1.419-1.78C25.516,73.6,30.518,62.179,30.734,61.7c0-.024.024-.048.048-.072a3.6,3.6,0,0,0,.385-3.006c-.818-1.9-4.3-2.573-5.772-3.174-3.8-1.491-4.329-3.223-4.088-4.4.385-2.044,3.463-3.319,5.267-2.477a9.061,9.061,0,0,0,3.776,1.01,3.371,3.371,0,0,0,1.587-.337c-.337-5.748-1.13-13.948.914-18.542,5.411-12.1,16.858-13.058,20.225-13.058.144,0,1.467-.024,1.611-.024A21.645,21.645,0,0,1,74.96,30.675c2.044,4.593,1.251,12.77.914,18.542a3.024,3.024,0,0,0,1.371.337,9.488,9.488,0,0,0,3.535-1.01,4.394,4.394,0,0,1,3.271,0,3.347,3.347,0,0,1,2.5,2.862c.024,1.563-1.371,2.91-4.136,3.992-.337.144-.746.265-1.178.409-1.563.505-3.944,1.251-4.569,2.766a3.688,3.688,0,0,0,.385,3.006c.024.024.024.048.048.072.216.481,5.219,11.9,16.353,13.732a1.847,1.847,0,0,1,1.178,2.6Z" transform="translate(181.015 357.898)" fill="#353535"/>
    <path id="Icon_awesome-twitter-square" data-name="Icon awesome-twitter-square" d="M117,2.25H14.04A14.044,14.044,0,0,0,0,16.29V119.251a14.044,14.044,0,0,0,14.04,14.04H117a14.044,14.044,0,0,0,14.04-14.04V16.29A14.044,14.044,0,0,0,117,2.25ZM102.7,48.7c.059.819.059,1.667.059,2.486,0,25.36-19.305,54.581-54.581,54.581a54.329,54.329,0,0,1-29.455-8.6,40.416,40.416,0,0,0,4.622.234,38.462,38.462,0,0,0,23.81-8.19A19.209,19.209,0,0,1,29.221,75.9a20.676,20.676,0,0,0,8.658-.351A19.185,19.185,0,0,1,22.523,56.714V56.48a19.171,19.171,0,0,0,8.658,2.428A19.143,19.143,0,0,1,22.64,42.937a18.944,18.944,0,0,1,2.6-9.682A54.471,54.471,0,0,0,64.789,53.321,19.225,19.225,0,0,1,97.521,35.8a37.591,37.591,0,0,0,12.168-4.622,19.134,19.134,0,0,1-8.424,10.559,38.176,38.176,0,0,0,11.057-2.984A40.38,40.38,0,0,1,102.7,48.7Z" transform="translate(406.774 157.777)" fill="#353535"/>
    <g id="instagram" transform="translate(251.041 220.816)">
      <path id="Path_26" data-name="Path 26" d="M225.785,218.393A7.393,7.393,0,1,1,218.393,211,7.393,7.393,0,0,1,225.785,218.393Zm0,0" transform="translate(-176.337 -176.337)" fill="#4d4d4d"/>
      <path id="Path_27" data-name="Path 27" d="M154.828,120H129.857A9.868,9.868,0,0,0,120,129.857v24.971a9.868,9.868,0,0,0,9.857,9.857h24.971a9.868,9.868,0,0,0,9.857-9.857V129.857A9.868,9.868,0,0,0,154.828,120Zm-12.485,34.663a12.321,12.321,0,1,1,12.321-12.321A12.335,12.335,0,0,1,142.342,154.663Zm14.128-23.985a2.464,2.464,0,1,1,2.464-2.464A2.464,2.464,0,0,1,156.471,130.678Zm0,0" transform="translate(-100.286 -100.286)" fill="#4d4d4d"/>
      <path id="Path_28" data-name="Path 28" d="M69.327,0H14.785C2.557,0,0,2.557,0,14.785V69.327C0,81.556,2.557,84.112,14.785,84.112H69.327c12.229,0,14.785-2.557,14.785-14.785V14.785C84.112,2.557,81.556,0,69.327,0Zm0,54.542A14.8,14.8,0,0,1,54.542,69.327H29.571A14.8,14.8,0,0,1,14.785,54.542V29.571A14.8,14.8,0,0,1,29.571,14.785H54.542A14.8,14.8,0,0,1,69.327,29.571Zm0,0" fill="#4d4d4d"/>
    </g>
    <g id="Connecting_lines" data-name="Connecting lines" transform="translate(126.588 105.194)">
      <line id="Line_3" data-name="Line 3" x1="59" transform="translate(411.5 115.5)" fill="none" stroke="#353535" stroke-width="1"/>
      <line id="Line_4" data-name="Line 4" x1="162" y2="247" transform="translate(308.5 115.5)" fill="none" stroke="#353535" stroke-width="2"/>
      <line id="Line_5" data-name="Line 5" x2="2" y2="177" transform="translate(345.5 185.5)" fill="none" stroke="#353535" stroke-width="2"/>
      <line id="Line_6" data-name="Line 6" x2="105" y2="210" transform="translate(171.5 199.5)" fill="none" stroke="#353535" stroke-width="2"/>
      <line id="Line_7" data-name="Line 7" x1="237" y2="69" transform="translate(108.5 185.5)" fill="none" stroke="#353535" stroke-width="1"/>
      <line id="Line_9" data-name="Line 9" x2="57" y2="116" transform="translate(124.5 362.5)" fill="none" stroke="#353535" stroke-width="2"/>
      <line id="Line_10" data-name="Line 10" x1="103" y2="22" transform="translate(181.5 456.5)" fill="none" stroke="#353535" stroke-width="2"/>
      <line id="Line_11" data-name="Line 11" x1="164" y2="293" transform="translate(181.5 185.5)" fill="none" stroke="#353535" stroke-width="1"/>
      <line id="Line_12" data-name="Line 12" x1="15" transform="translate(476.5 116.5)" fill="none" stroke="#353535" stroke-width="2"/>
      <path id="Path_29" data-name="Path 29" d="M7,0V15" transform="translate(174.5 485.5)" fill="none" stroke="#353535" stroke-width="2"/>
    </g>
    <g id="connectors" transform="translate(126.588 105.194)">
      <g id="Ellipse_11" data-name="Ellipse 11" transform="translate(174 471)" fill="#fff" stroke="#353535" stroke-width="1">
        <circle cx="7.5" cy="7.5" r="7.5" stroke="none"/>
        <circle cx="7.5" cy="7.5" r="7" fill="none"/>
      </g>
      <g id="Ellipse_12" data-name="Ellipse 12" transform="translate(242 350)" fill="#fff" stroke="#353535" stroke-width="1">
        <circle cx="7.5" cy="7.5" r="7.5" stroke="none"/>
        <circle cx="7.5" cy="7.5" r="7" fill="none"/>
      </g>
      <g id="Ellipse_13" data-name="Ellipse 13" transform="translate(180 224)" fill="#fff" stroke="#353535" stroke-width="1">
        <circle cx="7.5" cy="7.5" r="7.5" stroke="none"/>
        <circle cx="7.5" cy="7.5" r="7" fill="none"/>
      </g>
      <g id="Ellipse_14" data-name="Ellipse 14" transform="translate(339 297)" fill="#fff" stroke="#353535" stroke-width="1">
        <circle cx="7.5" cy="7.5" r="7.5" stroke="none"/>
        <circle cx="7.5" cy="7.5" r="7" fill="none"/>
      </g>
      <g id="Ellipse_15" data-name="Ellipse 15" transform="translate(462 109)" fill="#fff" stroke="#353535" stroke-width="1">
        <circle cx="7.5" cy="7.5" r="7.5" stroke="none"/>
        <circle cx="7.5" cy="7.5" r="7" fill="none"/>
      </g>
    </g>
    <ellipse id="Ellipse_16" data-name="Ellipse 16" cx="7" cy="8" rx="7" ry="8" transform="translate(633.588 313.194)" fill="#353535"/>
    <path id="Path_30" data-name="Path 30" d="M6.751-.3,98.761.849l.556,22.508-97.308-.33Z" transform="translate(537.588 595.195)" fill="#a5a5a5"/>
    <path id="Path_31" data-name="Path 31" d="M23.806,9.1,103.64-3.562l4,24.139L23.109,37.351Z" transform="translate(807.588 586.098)" fill="#a5a5a5"/>
    <path id="Path_33" data-name="Path 33" d="M-1.476-.09c.552,0,5.161.892,5.161,5.034,0,.634.632,3.146.6,4.044-.1,2.943-1.112,4.846-4.64,5.449-1.986.34-4.135-.045-4.135-1.7S0,8.646,0,6.836C0,2.694-2.028-.09-1.476-.09Z" transform="translate(781.588 306.194)" fill="#bababa"/>
    <path id="Path_34" data-name="Path 34" d="M3301.775,182.679c-1.552-.955-5.5-1.654-10.892.307s-10.668,7.538-10.668,7.538,12.551-4.545,18.08-1.407,5.321,10.6,4.035,13.959c-3.494,9.119-18.012,22.843-18.012,22.843s10-6.575,16.088-12.663a37.949,37.949,0,0,0,8.255-11.69s2.541-6.309.675-10.875S3305.4,184.91,3301.775,182.679Z" transform="translate(-2506.412 105.194)" fill="#fff" opacity="0.904"/>
    <path id="Path_35" data-name="Path 35" d="M3180.45,231.312a18.005,18.005,0,0,1-2.753,9.293,35.844,35.844,0,0,1-7.512,7.787,17.451,17.451,0,0,0,6.273,4.111,15.571,15.571,0,0,0,7.576.64s-2.642-.663-3.585-6.41S3180.45,231.312,3180.45,231.312Z" transform="translate(-2506.412 105.194)" fill="#e1e1e1"/>
    <path id="Path_36" data-name="Path 36" d="M3194.06,313.559s22.921,1.239,41.288-2.539a106.291,106.291,0,0,0,32.181-12.575l10.355,39.448s-8.258-12.7-29.214-18.784S3194.06,313.559,3194.06,313.559Z" transform="translate(-2506.412 105.194)" fill="#bebcbc"/>
    <path id="Path_37" data-name="Path 37" d="M3344.745,352.435h0c18.341,7.137,32.959,21.515,32.959,21.515s13.459,14.033,24.5,45.253,19.771,81.965,19.771,81.965l-62.565,12.468s22.663-60.6,8.9-102.656S3344.745,352.435,3344.745,352.435Z" transform="translate(-2506.412 105.194)" fill="#939292" opacity="0.473"/>
    <path id="Path_38" data-name="Path 38" d="M3393.154,510.255,3413.5,505.9s7.217,68.612,5.083,97.052c.2,15.752,2.149,17.951-2.149,41.046-.778,4.18-.295,8.623-2.934,12.026-10.877,14.036-37.229,17.64-37.229,17.64s30.135-34.231,16.883-42.177-34.851-8.633-34.851-8.633,25.12,1.872,29.785-6.109c2.193-3.751,18.233-31.195,16.5-54.969C3402.667,535.316,3393.154,510.255,3393.154,510.255Z" transform="translate(-2506.412 105.194)" fill="#a5a5a5" opacity="0.31"/>
    <path id="Path_39" data-name="Path 39" d="M3421.012,429.616l.959,71.553h-62.361s28.012-5.215,43.362-23.1S3421.012,429.616,3421.012,429.616Z" transform="translate(-2785.067 117.961)" fill="#939292" opacity="0.473"/>
    <path id="Path_40" data-name="Path 40" d="M3117.085,516.749h19.7L3124.7,600.025a32.222,32.222,0,0,1-5.369,17.608c-2.483,3.789-8.794,10.489-17.893,16.291a210.8,210.8,0,0,1-26.563,13.759s36.344-47.039,26.563-51.411-23.475-2.448-23.475-2.448,17.171-6.254,21.871-13.752S3117.085,516.749,3117.085,516.749Z" transform="translate(-2506.412 105.194)" fill="#c9c9c9" opacity="0.593"/>
    <path id="Path_41" data-name="Path 41" d="M3227.721,701.119s-46.182-2.522-85.6-9.126c-19.149-3.208-35.731-13.077-46.248-13-31.676.244-55.642,23.61-55.642,23.61s-3.363-9.167-3.018-5.616a8.708,8.708,0,0,0,3.018,5.616s18.611,2.792,45.636,1.585S3227.721,701.119,3227.721,701.119Z" transform="translate(-2506.412 105.194)" fill="#b8b5b5" opacity="0.393"/>
    <path id="Path_42" data-name="Path 42" d="M2659.366,453.368l240.1,91.3,63.8,218.888s-54.933-103.172-130.91-180.718S2659.366,453.368,2659.366,453.368Z" transform="translate(-2506.412 105.194)" fill="#353535" opacity="0.312"/>
    <path id="Path_43" data-name="Path 43" d="M3013.35,677.7l21.719,11.7s-2.707,12.841,3.776,15.759,30.645,1.9,30.645,1.9l69.793,36.671-166.637,8.849s52.247-13.531,62.423-32.249S3013.35,677.7,3013.35,677.7Z" transform="translate(-2506.412 105.194)" fill="#404040"/>
    <g id="Ellipse_17" data-name="Ellipse 17" transform="translate(270.882 683.095) rotate(-17)" fill="#353535" stroke="#707070" stroke-width="1">
      <ellipse cx="18.5" cy="28" rx="18.5" ry="28" stroke="none"/>
      <ellipse cx="18.5" cy="28" rx="18" ry="27.5" fill="none"/>
    </g>
    <path id="Path_44" data-name="Path 44" d="M3324.3,169.88" transform="translate(-2633)" fill="none" stroke="#707070" stroke-width="1"/>
  </g>
</svg>
